<svg xmlns="http://www.w3.org/2000/svg" viewBox="0 0 100 100" width="100" height="100">
  <!-- Background circle -->
  <circle cx="50" cy="50" r="45" fill="#3b82f6" stroke="#1d4ed8" stroke-width="2"/>
  
  <!-- Data points and line graph -->
  <polyline 
    points="20,70 30,60 40,65 50,45 60,55 70,35 80,40" 
    fill="none" 
    stroke="#ffffff" 
    stroke-width="3" 
    stroke-linecap="round" 
    stroke-linejoin="round"
  />
  
  <!-- Data points -->
  <circle cx="20" cy="70" r="2" fill="#ffffff"/>
  <circle cx="30" cy="60" r="2" fill="#ffffff"/>
  <circle cx="40" cy="65" r="2" fill="#ffffff"/>
  <circle cx="50" cy="45" r="2" fill="#ffffff"/>
  <circle cx="60" cy="55" r="2" fill="#ffffff"/>
  <circle cx="70" cy="35" r="2" fill="#ffffff"/>
  <circle cx="80" cy="40" r="2" fill="#ffffff"/>
  
  <!-- Bar chart elements -->
  <rect x="25" y="75" width="4" height="15" fill="#ffffff" opacity="0.8"/>
  <rect x="35" y="70" width="4" height="20" fill="#ffffff" opacity="0.8"/>
  <rect x="45" y="60" width="4" height="30" fill="#ffffff" opacity="0.8"/>
  <rect x="55" y="50" width="4" height="40" fill="#ffffff" opacity="0.8"/>
  <rect x="65" y="65" width="4" height="25" fill="#ffffff" opacity="0.8"/>
  <rect x="75" y="55" width="4" height="35" fill="#ffffff" opacity="0.8"/>
</svg> 